<svg xmlns="http://www.w3.org/2000/svg" xmlns:xlink="http://www.w3.org/1999/xlink" width="120" zoomAndPan="magnify" viewBox="0 0 90 30.000001" height="40" preserveAspectRatio="xMidYMid meet" version="1.0"><defs><g/><clipPath id="a39dc1489e"><path d="M 1.453125 0 L 88.546875 0 L 88.546875 29.03125 L 1.453125 29.03125 Z M 1.453125 0 " clip-rule="nonzero"/></clipPath><clipPath id="4c82dfdf43"><path d="M 64.164062 2.902344 L 88.546875 2.902344 L 88.546875 27.382812 L 64.164062 27.382812 Z M 64.164062 2.902344 " clip-rule="nonzero"/></clipPath><clipPath id="adebbd745a"><path d="M 76.355469 2.902344 C 69.625 2.902344 64.164062 8.375 64.164062 15.125 C 64.164062 21.875 69.625 27.34375 76.355469 27.34375 C 83.089844 27.34375 88.546875 21.875 88.546875 15.125 C 88.546875 8.375 83.089844 2.902344 76.355469 2.902344 Z M 76.355469 2.902344 " clip-rule="nonzero"/></clipPath></defs><g clip-path="url(#a39dc1489e)"><path fill="#ffffff" d="M 1.453125 0 L 88.546875 0 L 88.546875 29.03125 L 1.453125 29.03125 Z M 1.453125 0 " fill-opacity="1" fill-rule="nonzero"/><path fill="#ffffff" d="M 1.453125 0 L 88.546875 0 L 88.546875 29.03125 L 1.453125 29.03125 Z M 1.453125 0 " fill-opacity="1" fill-rule="nonzero"/></g><g clip-path="url(#4c82dfdf43)"><g clip-path="url(#adebbd745a)"><path fill="#ff204e" d="M 64.164062 2.902344 L 88.546875 2.902344 L 88.546875 27.382812 L 64.164062 27.382812 Z M 64.164062 2.902344 " fill-opacity="1" fill-rule="nonzero"/></g></g><g fill="#000000" fill-opacity="1"><g transform="translate(1.948638, 22.701159)"><g><path d="M 7.1875 0.234375 C 6.0625 0.234375 5.0625 0.0976562 4.1875 -0.171875 C 3.3125 -0.453125 2.582031 -0.816406 2 -1.265625 C 1.414062 -1.722656 0.96875 -2.222656 0.65625 -2.765625 L 2.421875 -4.921875 L 2.703125 -4.921875 C 3.191406 -4.191406 3.8125 -3.613281 4.5625 -3.1875 C 5.3125 -2.757812 6.1875 -2.546875 7.1875 -2.546875 C 8.050781 -2.546875 8.703125 -2.722656 9.140625 -3.078125 C 9.578125 -3.441406 9.796875 -3.941406 9.796875 -4.578125 C 9.796875 -4.960938 9.722656 -5.285156 9.578125 -5.546875 C 9.441406 -5.804688 9.207031 -6.03125 8.875 -6.21875 C 8.550781 -6.40625 8.113281 -6.5625 7.5625 -6.6875 L 5.46875 -7.171875 C 4.007812 -7.503906 2.921875 -8.054688 2.203125 -8.828125 C 1.492188 -9.597656 1.140625 -10.601562 1.140625 -11.84375 C 1.140625 -12.757812 1.367188 -13.566406 1.828125 -14.265625 C 2.285156 -14.960938 2.953125 -15.503906 3.828125 -15.890625 C 4.710938 -16.273438 5.765625 -16.46875 6.984375 -16.46875 C 8.234375 -16.46875 9.300781 -16.300781 10.1875 -15.96875 C 11.082031 -15.632812 11.835938 -15.128906 12.453125 -14.453125 L 10.875 -12.28125 L 10.59375 -12.28125 C 10.132812 -12.757812 9.609375 -13.117188 9.015625 -13.359375 C 8.421875 -13.597656 7.742188 -13.71875 6.984375 -13.71875 C 6.097656 -13.71875 5.425781 -13.5625 4.96875 -13.25 C 4.507812 -12.9375 4.28125 -12.507812 4.28125 -11.96875 C 4.28125 -11.457031 4.441406 -11.050781 4.765625 -10.75 C 5.085938 -10.445312 5.644531 -10.207031 6.4375 -10.03125 L 8.5625 -9.59375 C 10.144531 -9.257812 11.289062 -8.691406 12 -7.890625 C 12.707031 -7.097656 13.0625 -6.0625 13.0625 -4.78125 C 13.0625 -3.769531 12.84375 -2.890625 12.40625 -2.140625 C 11.96875 -1.390625 11.304688 -0.804688 10.421875 -0.390625 C 9.546875 0.0234375 8.46875 0.234375 7.1875 0.234375 Z M 7.1875 0.234375 "/></g></g></g><g fill="#000000" fill-opacity="1"><g transform="translate(14.415298, 22.701159)"><g><path d="M 7.109375 0.234375 C 5.910156 0.234375 4.859375 -0.0078125 3.953125 -0.5 C 3.046875 -1 2.34375 -1.722656 1.84375 -2.671875 C 1.34375 -3.617188 1.09375 -4.765625 1.09375 -6.109375 C 1.09375 -7.460938 1.34375 -8.613281 1.84375 -9.5625 C 2.34375 -10.519531 3.046875 -11.242188 3.953125 -11.734375 C 4.859375 -12.234375 5.910156 -12.484375 7.109375 -12.484375 C 8.304688 -12.484375 9.359375 -12.234375 10.265625 -11.734375 C 11.179688 -11.242188 11.890625 -10.519531 12.390625 -9.5625 C 12.890625 -8.613281 13.140625 -7.460938 13.140625 -6.109375 C 13.140625 -4.765625 12.890625 -3.617188 12.390625 -2.671875 C 11.890625 -1.722656 11.179688 -1 10.265625 -0.5 C 9.359375 -0.0078125 8.304688 0.234375 7.109375 0.234375 Z M 7.109375 -2.375 C 9.015625 -2.375 9.96875 -3.617188 9.96875 -6.109375 C 9.96875 -7.410156 9.722656 -8.363281 9.234375 -8.96875 C 8.742188 -9.570312 8.035156 -9.875 7.109375 -9.875 C 5.210938 -9.875 4.265625 -8.617188 4.265625 -6.109375 C 4.265625 -3.617188 5.210938 -2.375 7.109375 -2.375 Z M 7.109375 -2.375 "/></g></g></g><g fill="#000000" fill-opacity="1"><g transform="translate(27.170626, 22.701159)"><g><path d="M 7.140625 0.234375 C 5.953125 0.234375 4.898438 -0.0078125 3.984375 -0.5 C 3.078125 -1 2.367188 -1.722656 1.859375 -2.671875 C 1.347656 -3.628906 1.09375 -4.773438 1.09375 -6.109375 C 1.09375 -7.460938 1.347656 -8.613281 1.859375 -9.5625 C 2.367188 -10.519531 3.078125 -11.242188 3.984375 -11.734375 C 4.890625 -12.234375 5.921875 -12.484375 7.078125 -12.484375 C 9.660156 -12.484375 11.316406 -11.546875 12.046875 -9.671875 L 9.9375 -8.15625 L 9.703125 -8.15625 C 9.453125 -8.738281 9.125 -9.171875 8.71875 -9.453125 C 8.3125 -9.734375 7.765625 -9.875 7.078125 -9.875 C 6.191406 -9.875 5.5 -9.566406 5 -8.953125 C 4.507812 -8.335938 4.265625 -7.390625 4.265625 -6.109375 C 4.265625 -4.859375 4.515625 -3.921875 5.015625 -3.296875 C 5.515625 -2.679688 6.222656 -2.375 7.140625 -2.375 C 7.804688 -2.375 8.367188 -2.550781 8.828125 -2.90625 C 9.296875 -3.269531 9.628906 -3.789062 9.828125 -4.46875 L 10.0625 -4.484375 L 12.25 -3.28125 C 11.9375 -2.25 11.359375 -1.40625 10.515625 -0.75 C 9.679688 -0.09375 8.554688 0.234375 7.140625 0.234375 Z M 7.140625 0.234375 "/></g></g></g><g fill="#000000" fill-opacity="1"><g transform="translate(38.316081, 22.701159)"><g><path d="M 3.296875 -13.703125 C 2.742188 -13.703125 2.289062 -13.867188 1.9375 -14.203125 C 1.59375 -14.546875 1.421875 -14.984375 1.421875 -15.515625 C 1.421875 -16.046875 1.59375 -16.476562 1.9375 -16.8125 C 2.289062 -17.144531 2.742188 -17.3125 3.296875 -17.3125 C 3.671875 -17.3125 4 -17.234375 4.28125 -17.078125 C 4.570312 -16.921875 4.796875 -16.707031 4.953125 -16.4375 C 5.109375 -16.175781 5.1875 -15.867188 5.1875 -15.515625 C 5.1875 -15.171875 5.109375 -14.859375 4.953125 -14.578125 C 4.796875 -14.304688 4.570312 -14.09375 4.28125 -13.9375 C 4 -13.78125 3.671875 -13.703125 3.296875 -13.703125 Z M 1.765625 0 L 1.765625 -12.25 L 4.84375 -12.25 L 4.84375 0 Z M 1.765625 0 "/></g></g></g><g fill="#000000" fill-opacity="1"><g transform="translate(43.432811, 22.701159)"><g><path d="M 4.765625 0.234375 C 3.984375 0.234375 3.300781 0.09375 2.71875 -0.1875 C 2.144531 -0.476562 1.703125 -0.90625 1.390625 -1.46875 C 1.085938 -2.03125 0.9375 -2.703125 0.9375 -3.484375 C 0.9375 -4.210938 1.085938 -4.820312 1.390625 -5.3125 C 1.703125 -5.800781 2.179688 -6.203125 2.828125 -6.515625 C 3.484375 -6.835938 4.335938 -7.082031 5.390625 -7.25 C 6.128906 -7.363281 6.6875 -7.488281 7.0625 -7.625 C 7.445312 -7.769531 7.703125 -7.929688 7.828125 -8.109375 C 7.960938 -8.285156 8.03125 -8.515625 8.03125 -8.796875 C 8.03125 -9.179688 7.894531 -9.476562 7.625 -9.6875 C 7.351562 -9.894531 6.898438 -10 6.265625 -10 C 5.578125 -10 4.925781 -9.847656 4.3125 -9.546875 C 3.695312 -9.242188 3.164062 -8.84375 2.71875 -8.34375 L 2.5 -8.34375 L 1.203125 -10.296875 C 1.828125 -10.984375 2.585938 -11.519531 3.484375 -11.90625 C 4.378906 -12.289062 5.359375 -12.484375 6.421875 -12.484375 C 8.035156 -12.484375 9.203125 -12.132812 9.921875 -11.4375 C 10.648438 -10.75 11.015625 -9.773438 11.015625 -8.515625 L 11.015625 -3.203125 C 11.015625 -2.648438 11.257812 -2.375 11.75 -2.375 C 11.925781 -2.375 12.101562 -2.40625 12.28125 -2.46875 L 12.4375 -2.4375 L 12.671875 -0.28125 C 12.492188 -0.175781 12.253906 -0.0859375 11.953125 -0.015625 C 11.648438 0.0546875 11.316406 0.09375 10.953125 0.09375 C 10.222656 0.09375 9.648438 -0.046875 9.234375 -0.328125 C 8.828125 -0.609375 8.535156 -1.050781 8.359375 -1.65625 L 8.125 -1.671875 C 7.53125 -0.398438 6.410156 0.234375 4.765625 0.234375 Z M 5.75 -2.0625 C 6.457031 -2.0625 7.023438 -2.300781 7.453125 -2.78125 C 7.878906 -3.257812 8.09375 -3.921875 8.09375 -4.765625 L 8.09375 -6.015625 L 7.875 -6.0625 C 7.695312 -5.914062 7.457031 -5.789062 7.15625 -5.6875 C 6.851562 -5.59375 6.421875 -5.492188 5.859375 -5.390625 C 5.191406 -5.285156 4.710938 -5.097656 4.421875 -4.828125 C 4.128906 -4.554688 3.984375 -4.171875 3.984375 -3.671875 C 3.984375 -3.148438 4.140625 -2.75 4.453125 -2.46875 C 4.765625 -2.195312 5.195312 -2.0625 5.75 -2.0625 Z M 5.75 -2.0625 "/></g></g></g><g fill="#000000" fill-opacity="1"><g transform="translate(54.866934, 22.701159)"><g><path d="M 5.078125 0.234375 C 3.984375 0.234375 3.144531 -0.0625 2.5625 -0.65625 C 1.976562 -1.25 1.6875 -2.15625 1.6875 -3.375 L 1.6875 -17.15625 L 4.765625 -17.15625 L 4.765625 -3.5 C 4.765625 -2.75 5.070312 -2.375 5.6875 -2.375 C 5.875 -2.375 6.066406 -2.40625 6.265625 -2.46875 L 6.421875 -2.421875 L 6.6875 -0.0625 C 6.519531 0.03125 6.296875 0.101562 6.015625 0.15625 C 5.734375 0.207031 5.421875 0.234375 5.078125 0.234375 Z M 5.078125 0.234375 "/></g></g></g><g fill="#000000" fill-opacity="1"><g transform="translate(60.432761, 22.701159)"><g/></g></g><g fill="#000000" fill-opacity="1"><g transform="translate(64.317105, 22.701159)"><g/></g></g><g fill="#ffffff" fill-opacity="1"><g transform="translate(68.212499, 22.701159)"><g><path d="M 5.3125 0 L 2.109375 0 L 2.109375 -16.234375 L 5.3125 -16.234375 Z M 5.3125 0 "/></g></g></g><g fill="#ffffff" fill-opacity="1"><g transform="translate(74.173026, 22.701159)"><g><path d="M 8.453125 -2.921875 L 9.25 -0.640625 C 8.914062 -0.367188 8.492188 -0.15625 7.984375 0 C 7.484375 0.15625 6.914062 0.234375 6.28125 0.234375 C 4.957031 0.234375 3.953125 -0.125 3.265625 -0.84375 C 2.578125 -1.570312 2.234375 -2.625 2.234375 -4 L 2.234375 -9.8125 L 0.359375 -9.8125 L 0.359375 -12.25 L 2.234375 -12.25 L 2.234375 -14.640625 L 5.3125 -15.140625 L 5.3125 -12.25 L 8.78125 -12.25 L 8.78125 -9.8125 L 5.3125 -9.8125 L 5.3125 -4.21875 C 5.3125 -3.613281 5.4375 -3.171875 5.6875 -2.890625 C 5.9375 -2.609375 6.300781 -2.46875 6.78125 -2.46875 C 7.332031 -2.46875 7.8125 -2.617188 8.21875 -2.921875 Z M 8.453125 -2.921875 "/></g></g></g></svg>